<?xml version="1.0" encoding="UTF-8"?>
<svg version="1.1" xmlns="http://www.w3.org/2000/svg" width="317" height="317">
<path d="M0 0 C104.61 0 209.22 0 317 0 C317 104.61 317 209.22 317 317 C212.39 317 107.78 317 0 317 C0 212.39 0 107.78 0 0 Z " fill="#FEFEFE" transform="translate(0,0)"/>
<path d="M0 0 C6.27 0 12.54 0 19 0 C19.495 3.96 19.495 3.96 20 8 C22.31 8 24.62 8 27 8 C27 5.69 27 3.38 27 1 C29.375 0.875 29.375 0.875 32 1 C34 3 34 3 34.22705078 4.97119141 C34.21657715 5.75671387 34.20610352 6.54223633 34.1953125 7.3515625 C34.18886719 8.20234375 34.18242187 9.053125 34.17578125 9.9296875 C34.15902344 10.81914063 34.14226562 11.70859375 34.125 12.625 C34.11597656 13.5221875 34.10695312 14.419375 34.09765625 15.34375 C34.0740497 17.56276586 34.0411231 19.78125077 34 22 C33.01 22 32.02 22 31 22 C31 19.03 31 16.06 31 13 C28.03 13 25.06 13 22 13 C22 15.31 22 17.62 22 20 C21.34 20 20.68 20 20 20 C20 17.69 20 15.38 20 13 C16.7 13 13.4 13 10 13 C10.02320313 13.77085938 10.04640625 14.54171875 10.0703125 15.3359375 C10.09738281 16.84027344 10.09738281 16.84027344 10.125 18.375 C10.14820313 19.37273437 10.17140625 20.37046875 10.1953125 21.3984375 C10 24 10 24 8 26 C5.6171875 26.1953125 5.6171875 26.1953125 2.875 26.125 C1.26625 26.08375 -0.3425 26.0425 -2 26 C-2 29.63 -2 33.26 -2 37 C-1.34 37 -0.68 37 0 37 C0 37.66 0 38.32 0 39 C-0.66 39 -1.32 39 -2 39 C-2 42.63 -2 46.26 -2 50 C-1.01 50 -0.02 50 1 50 C1 50.99 1 51.98 1 53 C-1.29160319 53.02692484 -3.58329546 53.04636124 -5.875 53.0625 C-7.15117187 53.07410156 -8.42734375 53.08570313 -9.7421875 53.09765625 C-13 53 -13 53 -15 52 C-15.94399942 49.16800175 -16.1313568 47.40359031 -16.14526367 44.46850586 C-16.15164352 43.55423325 -16.15802338 42.63996063 -16.16459656 41.69798279 C-16.16570938 40.71354691 -16.1668222 39.72911102 -16.16796875 38.71484375 C-16.17129715 37.70281387 -16.17462555 36.690784 -16.17805481 35.64808655 C-16.18311777 33.50880386 -16.18546333 31.36951328 -16.18530273 29.23022461 C-16.18749368 25.94697192 -16.20566835 22.66405279 -16.22460938 19.38085938 C-16.22754246 17.30468865 -16.22952782 15.22851633 -16.23046875 13.15234375 C-16.23765427 12.16588364 -16.24483978 11.17942352 -16.25224304 10.16307068 C-16.24916641 9.25195023 -16.24608978 8.34082977 -16.24291992 7.40209961 C-16.24434494 6.59840439 -16.24576996 5.79470917 -16.24723816 4.96665955 C-16 3 -16 3 -14 1 C-11.375 0.875 -11.375 0.875 -9 1 C-8.34 3.31 -7.68 5.62 -7 8 C-4.69 8 -2.38 8 0 8 C0 5.36 0 2.72 0 0 Z " fill="#FF9031" transform="translate(145,86)"/>
<path d="M0 0 C5.60979798 2.43286321 9.08673639 6.75612551 12 12 C13.77276597 17.31829792 13.72212067 22.03830184 11.4375 27.125 C8.62841681 32.18533426 4.60620142 35.45036673 -0.3125 38.375 C-6.38606909 39.78745793 -11.8858711 40.07519718 -17.375 36.8125 C-21.77176177 33.67448858 -24.87393767 29.97589056 -27 25 C-27.80433084 18.76382456 -27.14055899 13.52305202 -24 8 C-21.5625 5.25 -21.5625 5.25 -19 3 C-18.43667969 2.47019531 -17.87335938 1.94039063 -17.29296875 1.39453125 C-12.27781994 -1.65556777 -5.63756966 -0.72914939 0 0 Z " fill="#FFFAF6" transform="translate(175,110)"/>
<path d="M0 0 C4.9961892 2.83184813 7.89529949 7.06089848 9.6875 12.4375 C10.42404532 20.41201949 9.15128857 26.47783979 4.9375 33.25 C0.44844512 37.61435891 -3.78916124 38.62693592 -9.875 38.875 C-14.76908357 38.74073159 -17.55375638 37.72640066 -21.3125 34.4375 C-21.89 33.9425 -22.4675 33.4475 -23.0625 32.9375 C-27.84525619 27.19819257 -26.99184822 19.48353219 -26.55078125 12.40283203 C-25.93318305 7.30891248 -23.4918518 4.35687836 -19.7734375 1.08203125 C-13.8509788 -3.03000761 -6.45194251 -2.81207306 0 0 Z " fill="#070707" transform="translate(257.3125,182.5625)"/>
<path d="M0 0 C2.43131626 1.74401838 3.81040053 2.93228851 5.2109375 5.5859375 C5.78925142 10.7907628 5.11982635 14.22260422 2.2109375 18.5859375 C-2.81661968 22.54380167 -6.56708135 23.72989521 -12.8515625 23.7109375 C-14.13740234 23.71480469 -14.13740234 23.71480469 -15.44921875 23.71875 C-17.7890625 23.5859375 -17.7890625 23.5859375 -20.7890625 22.5859375 C-20.4590625 24.2359375 -20.1290625 25.8859375 -19.7890625 27.5859375 C-13.01109975 29.59839675 -5.45931196 29.16800989 1.3359375 27.4609375 C3.2540625 27.0278125 3.2540625 27.0278125 5.2109375 26.5859375 C7.2109375 28.5859375 7.2109375 28.5859375 7.6484375 30.9609375 C7.2109375 33.5859375 7.2109375 33.5859375 4.8984375 35.8359375 C0.21038412 38.88862342 -4.11247119 38.83300433 -9.5390625 38.8984375 C-10.71855469 38.94194336 -10.71855469 38.94194336 -11.921875 38.98632812 C-17.71786697 39.04890943 -21.05095735 37.96594824 -25.7890625 34.5859375 C-29.8384481 28.10692054 -31.01458957 20.902988 -29.29296875 13.43359375 C-27.29563758 7.55444381 -24.29800301 3.46764288 -19.2890625 -0.2890625 C-13.20219986 -2.24555406 -5.82393419 -2.95275095 0 0 Z " fill="#080808" transform="translate(172.7890625,182.4140625)"/>
<path d="M0 0 C4.875 0.875 4.875 0.875 6 2 C7.2000593 16.88535092 3.25893932 33.05298152 -6 45 C-6.5775 45.78375 -7.155 46.5675 -7.75 47.375 C-10.48763112 49.35217803 -12.68806319 49.63436 -16.04296875 49.44140625 C-20.07934795 48.53100535 -21.90108054 45.69535901 -24.05078125 42.37890625 C-29.39030831 32.79249666 -31.35974919 22.58293899 -31.4375 11.75 C-31.45248535 10.4983606 -31.45248535 10.4983606 -31.46777344 9.22143555 C-31.43359375 6.859375 -31.43359375 6.859375 -31 3 C-28 1 -28 1 -25.9375 1.1875 C-24 2 -24 2 -22 5 C-21.53736923 6.88431371 -21.15258403 8.78828969 -20.81640625 10.69921875 C-20.61080078 11.82650391 -20.40519531 12.95378906 -20.19335938 14.11523438 C-19.77624948 16.47713531 -19.35957537 18.83911325 -18.94335938 21.20117188 C-17.80397309 27.44472473 -16.47457595 33.14903471 -14 39 C-8.30296909 30.45445364 -6.2049898 20.41007773 -4.43212891 10.44921875 C-3.65194663 6.26515577 -3.05164296 3.18094986 0 0 Z " fill="#070707" transform="translate(82,172)"/>
<path d="M0 0 C2.88575819 0.39803561 3.82189513 0.79009069 5.75 3.0625 C6.36875 4.0215625 6.36875 4.0215625 7 5 C7.495 4.34 7.99 3.68 8.5 3 C11.53249618 0.57400305 13.2869204 0.27592263 17.09375 0.49609375 C19 1 19 1 21.5 3.4375 C23.90541124 9.15035169 23.82692188 13.68461874 21.75 19.5 C20 22 20 22 17.9375 23 C17.298125 23 16.65875 23 16 23 C13.41073669 20.41073669 13.62601957 18.97294721 13.375 15.375 C13.30023438 14.37210938 13.22546875 13.36921875 13.1484375 12.3359375 C13.09945312 11.56507813 13.05046875 10.79421875 13 10 C11.02463255 10.34786708 11.02463255 10.34786708 9 11 C6.28382511 16.43234979 8.16335564 24.24807005 9 30 C9.48648649 38.27027027 9.48648649 38.27027027 7 42 C4.375 42.1875 4.375 42.1875 2 42 C-3.38332528 33.43561888 -3.18988518 22.7569816 -3.3125 12.9375 C-3.33896606 11.70543823 -3.33896606 11.70543823 -3.3659668 10.44848633 C-3.35931343 4.60501361 -3.35931343 4.60501361 -1.48046875 1.44140625 C-0.99191406 0.96574219 -0.50335938 0.49007812 0 0 Z " fill="#0A0A0A" transform="translate(116,179)"/>
<path d="M0 0 C2.4375 0.375 2.4375 0.375 5 1 C6.27031109 3.54062219 6.12942986 5.32948912 6.1328125 8.171875 C6.13571289 9.74884155 6.13571289 9.74884155 6.13867188 11.35766602 C6.13416016 12.47713623 6.12964844 13.59660645 6.125 14.75 C6.12306641 15.87913818 6.12113281 17.00827637 6.11914062 18.17163086 C6.07789809 26.15492623 5.79618242 34.05239336 5 42 C5.78375 41.79375 6.5675 41.5875 7.375 41.375 C8.674375 41.189375 8.674375 41.189375 10 41 C10.66 41.66 11.32 42.32 12 43 C11.90849201 46.47730343 11.21809552 47.76944187 8.8125 50.3125 C5.50691568 52.29585059 3.79052747 52.5768194 0 52 C-3.16475343 49.65916048 -3.60941402 47.36205655 -4.1875 43.5625 C-5.75909459 31.75573055 -8.39109091 11.91941891 -1.42578125 1.6875 C-0.72001953 0.8521875 -0.72001953 0.8521875 0 0 Z " fill="#0E0E0E" transform="translate(191,169)"/>
<path d="M0 0 C1.65 0 3.3 0 5 0 C6.8021546 5.41364371 7.35010839 10.18379229 7.3125 15.875 C7.31121094 16.69202393 7.30992187 17.50904785 7.30859375 18.35083008 C7.17919109 26.75148905 5.76247215 34.80660269 4 43 C4.61359375 42.66226563 5.2271875 42.32453125 5.859375 41.9765625 C8.4056713 40.81493098 9.42143135 41.07908262 12 42 C12.375 44.75 12.375 44.75 12 48 C9.4375 50.4375 9.4375 50.4375 6 52 C2.125 51.75 2.125 51.75 -1 51 C-3.97867535 43.55724127 -4.42817091 37.15953921 -4.3125 29.1875 C-4.31572266 28.08857422 -4.31894531 26.98964844 -4.32226562 25.85742188 C-4.20326778 7.49929995 -4.20326778 7.49929995 0 0 Z " fill="#0C0C0C" transform="translate(213,169)"/>
<path d="M0 0 C5.60979798 2.43286321 9.08673639 6.75612551 12 12 C13.77276597 17.31829792 13.72212067 22.03830184 11.4375 27.125 C8.62841681 32.18533426 4.60620142 35.45036673 -0.3125 38.375 C-6.38606909 39.78745793 -11.8858711 40.07519718 -17.375 36.8125 C-21.77176177 33.67448858 -24.87393767 29.97589056 -27 25 C-27.80433084 18.76382456 -27.14055899 13.52305202 -24 8 C-21.5625 5.25 -21.5625 5.25 -19 3 C-18.43667969 2.47019531 -17.87335938 1.94039063 -17.29296875 1.39453125 C-12.27781994 -1.65556777 -5.63756966 -0.72914939 0 0 Z M-20.140625 10.23828125 C-22.39155092 13.58156828 -22.53736321 15.50213686 -22.5 19.5 C-22.5103125 20.6034375 -22.520625 21.706875 -22.53125 22.84375 C-21.75473509 27.45716209 -19.36631195 29.79930162 -15.9375 32.8125 C-11.32860611 34.67566987 -6.89741357 34.65442678 -2 34 C3.14853681 31.4257316 6.182008 28.45397599 8 23 C8.53818855 16.54173735 7.74703632 13.30830146 4 8 C-0.17135659 4.0893532 -4.32556374 3.63472028 -9.9765625 3.71875 C-14.39335171 4.33266665 -17.17210757 7.13433875 -20.140625 10.23828125 Z " fill="#FF8C29" transform="translate(175,110)"/>
<path d="M0 0 C2.8215785 2.30181404 4.81631693 4.23381664 5.203125 7.953125 C5.3081774 13.10069237 4.83701941 16.52623862 2 21 C0 23 0 23 -3.875 23.375 C-7.01522643 23.30091117 -7.81836528 23.13506171 -10.4375 21.1875 C-13.88567673 16.36005258 -13.62577215 10.70704198 -13 5 C-9.3918735 -1.01354417 -6.69427002 -1.50043983 0 0 Z " fill="#F6F6F6" transform="translate(253,189)"/>
<path d="M0 0 C2.125 0.375 2.125 0.375 4 1 C7.16510594 12.07787079 7.68087633 24.32760197 3 35 C2 36 2 36 -0.5625 36.0625 C-1.366875 36.041875 -2.17125 36.02125 -3 36 C-5.5010087 31.1773378 -5.33209259 26.54783709 -5.3125 21.25 C-5.32861328 20.3940625 -5.34472656 19.538125 -5.36132812 18.65625 C-5.36583662 12.70503535 -4.53178336 7.43270852 -2 2 C-1.34 1.34 -0.68 0.68 0 0 Z " fill="#0C0C0C" transform="translate(99,185)"/>
<path d="M0 0 C1.78125 1.37109375 1.78125 1.37109375 3 3 C2.85591787 5.88164256 2.41186303 7.47581069 0.625 9.75 C-3.08439937 12.60338413 -7.53410616 12.51065314 -12 12 C-14.0625 10.8125 -14.0625 10.8125 -15 9 C-15 5.59979508 -14.22458088 4.25967164 -12 1.6875 C-8.06087617 -0.52825715 -4.44088179 -0.92310464 0 0 Z " fill="#F3F3F3" transform="translate(167,188)"/>
<path d="M0 0 C2.18785263 0.98076152 3.75512761 1.70848526 5.3125 3.5625 C7.64294725 5.54769581 9.17581666 5.30483831 12.1875 5.1875 C13.08855469 5.16042969 13.98960937 5.13335937 14.91796875 5.10546875 C15.60503906 5.07066406 16.29210937 5.03585938 17 5 C16.67 5.99 16.34 6.98 16 8 C12.9375 9.1875 12.9375 9.1875 10 10 C9.95101562 10.78246094 9.90203125 11.56492188 9.8515625 12.37109375 C9.77679688 13.38300781 9.70203125 14.39492187 9.625 15.4375 C9.55539063 16.44683594 9.48578125 17.45617187 9.4140625 18.49609375 C9.27742188 19.32238281 9.14078125 20.14867187 9 21 C8.34 21.33 7.68 21.66 7 22 C6.67 18.7 6.34 15.4 6 12 C0.68588506 13.92391649 0.68588506 13.92391649 -3 18 C-3.433125 16.6078125 -3.433125 16.6078125 -3.875 15.1875 C-4.8875 11.90208333 -4.8875 11.90208333 -7 9 C-5.906875 9.226875 -4.81375 9.45375 -3.6875 9.6875 C-0.09468727 10.40146383 -0.09468727 10.40146383 1.9375 8.5625 C2.288125 8.046875 2.63875 7.53125 3 7 C2.505 6.21625 2.01 5.4325 1.5 4.625 C0 2 0 2 0 0 Z " fill="#FF902F" transform="translate(162,119)"/>
<path d="M0 0 C3.3 0 6.6 0 10 0 C10 3.63 10 7.26 10 11 C6.7 11 3.4 11 0 11 C0 7.37 0 3.74 0 0 Z " fill="#FFFFFF" transform="translate(143,99)"/>
<path d="M0 0 C2.97 0 5.94 0 9 0 C9 3.63 9 7.26 9 11 C6.03 11 3.06 11 0 11 C0 7.37 0 3.74 0 0 Z " fill="#FFFEFD" transform="translate(132,125)"/>
<path d="M0 0 C2.97 0 5.94 0 9 0 C9 3.63 9 7.26 9 11 C6.03 11 3.06 11 0 11 C0 7.37 0 3.74 0 0 Z " fill="#FFFFFF" transform="translate(132,112)"/>
<path d="M0 0 C2.97 0 5.94 0 9 0 C9 3.63 9 7.26 9 11 C6.03 11 3.06 11 0 11 C0 7.37 0 3.74 0 0 Z " fill="#FFFFFF" transform="translate(132,99)"/>
<path d="M0 0 C2.4375 0.75 2.4375 0.75 4.4375 2.75 C4.0625 5.875 4.0625 5.875 3.4375 8.75 C-2.97444487 10.08078101 -2.97444487 10.08078101 -5.5625 8.625 C-6.5625 6.75 -6.5625 6.75 -6.4375 4.1875 C-5.18957231 0.71113001 -3.70068694 -0.36104263 0 0 Z " fill="#101010" transform="translate(100.5625,170.25)"/>
<path d="M0 0 C0.99 0.33 1.98 0.66 3 1 C3 4.63 3 8.26 3 12 C1.68 12.33 0.36 12.66 -1 13 C-1.02686553 11.02090602 -1.04633375 9.04171029 -1.0625 7.0625 C-1.07410156 5.96035156 -1.08570313 4.85820313 -1.09765625 3.72265625 C-1 1 -1 1 0 0 Z " fill="#FF8923" transform="translate(167,80)"/>
<path d="M0 0 C0.99 0.33 1.98 0.66 3 1 C3 4.63 3 8.26 3 12 C1.68 12.33 0.36 12.66 -1 13 C-1.02686553 11.02090602 -1.04633375 9.04171029 -1.0625 7.0625 C-1.07410156 5.96035156 -1.08570313 4.85820313 -1.09765625 3.72265625 C-1 1 -1 1 0 0 Z " fill="#FF8821" transform="translate(140,80)"/>
<path d="M0 0 C2.97 0.33 5.94 0.66 9 1 C9 1.99 9 2.98 9 4 C8.01 4.66 7.02 5.32 6 6 C5.01 7.485 5.01 7.485 4 9 C3.71125 8.071875 3.4225 7.14375 3.125 6.1875 C2.1125 2.90208333 2.1125 2.90208333 0 0 Z " fill="#FF9C46" transform="translate(155,128)"/>
</svg>
